# xmcd
# Track frame offsets:
# 150
# 3683
# 21461
# 26034
# 47282
# 66622
# 69438
# 87704
# 109667
# 125552
# 146909
# 166525
# 189536
# 205457
# 226491
# 247762
# 267821
# 286990
# 289383
# 310411
# 330117
#
# Disc length: 4444 seconds
# Revision: 0
# Processed by: cddbd v1.4PL0 Copyright (c) Steve Scherf et al.
# Submitted via: VisiTrax 2.9.5.181 - For more info visit www.synapsa.com
#
DISCID=3a115a15
DTITLE=Snoop Dogg - Tha Doggfather
DYEAR=1900
DGENRE=
TTITLE0=Snoop Dogg - Intro
TTITLE1=Snoop Dogg - Charlie Wilson - Doggfather
TTITLE2=Snoop Dogg - Ride 4 Me
TTITLE3=Snoop Dogg - Teena Marie - Charlie Wilson - Up Jump tha Boogie
TTITLE4=Snoop Dogg - Freestyle Conversation
TTITLE5=Snoop Dogg - When I Grow Up
TTITLE6=Snoop Dogg - Charlie Wilson - Snoop Bounce
TTITLE7=Snoop Dogg - Kurupt - Tha Kingpin - L.B.C. Crew - Gold Rush
TTITLE8=Snoop Dogg - (Tear 'Em Off) Me and My Doggz
TTITLE9=Snoop Dogg - Too Short - Priest Brooks - You Thought
TTITLE10=Snoop Dogg - Teena Marie - Charlie Wilson - Vapors
TTITLE11=Snoop Dogg - Tha Dogg Pound - Warren G - Charlie Wilson - Nate Dog
TTITLE11=g - Groupie
TTITLE12=Snoop Dogg - Tha King Pin - Threat - Bad Ass - Kurupt - 2001
TTITLE13=Snoop Dogg - Sixx Minutes
TTITLE14=Snoop Dogg, Big Tray Deee - (O.J.) Wake Up
TTITLE15=Snoop Dogg - Charlie Wilson - Snoop's Upside Ya Head
TTITLE16=Snoop Dogg - Tha Dogg Pound, L.B.C. Crew - Blueberry
TTITLE17=Snoop Dogg - Traffic Jam
TTITLE18=Snoop Dogg - Doggyland
TTITLE19=Snoop Dogg - Big Tray Deee - Dat Nigga Daz - Downtown Assassins
TTITLE20=Snoop Dogg - Outro
EXTD=
EXTT0=
EXTT1=
EXTT2=
EXTT3=
EXTT4=
EXTT5=
EXTT6=
EXTT7=
EXTT8=
EXTT9=
EXTT10=
EXTT11=
EXTT12=
EXTT13=
EXTT14=
EXTT15=
EXTT16=
EXTT17=
EXTT18=
EXTT19=
EXTT20=
PLAYORDER=
